# xmcd
#
# Track frame offsets:
#	150
#	19562
#	40467
#	58149
#
# Disc length: 955 seconds
#
# Revision: 1
# Processed by: cddbd v1.5.2PL0 Copyright (c) Steve Scherf et al.
# Submitted via: audiograbber 1.83.01
#
DISCID=2e03b904
DTITLE=Drew Morrison and the Darkwood - Tales of Love Sadness and Rock n Roll
DYEAR=1900
DGENRE=
TTITLE0=Always
TTITLE1=Ladytime
TTITLE2=Country Soul
TTITLE3=Nightbirds
EXTD=
EXTT0=
EXTT1=
EXTT2=
EXTT3=
PLAYORDER=
